<svg width="26" height="26" viewBox="0 0 26 26" fill="none" xmlns="http://www.w3.org/2000/svg">
<path d="M25.7732 5.15974C25.6829 5.05158 25.5698 4.96459 25.4421 4.9049C25.3144 4.84521 25.1752 4.81429 25.0343 4.81431H5.61827L4.88649 0.790751C4.84619 0.568892 4.7293 0.368217 4.5562 0.22371C4.3831 0.0792036 4.16477 3.25895e-05 3.93928 0H0.962856C0.707491 0 0.462584 0.101444 0.282014 0.282016C0.101443 0.462588 0 0.707496 0 0.962863C0 1.21823 0.101443 1.46314 0.282014 1.64371C0.462584 1.82428 0.707491 1.92573 0.962856 1.92573H3.12928L6.20561 18.8107C6.29623 19.3115 6.51753 19.7794 6.84711 20.1672C6.39222 20.592 6.06389 21.1346 5.89853 21.7347C5.73317 22.3348 5.73724 22.969 5.91029 23.5669C6.08334 24.1648 6.41861 24.7031 6.87892 25.1221C7.33923 25.5411 7.90659 25.8245 8.5181 25.9407C9.1296 26.057 9.76135 26.0016 10.3433 25.7807C10.9252 25.5598 11.4346 25.182 11.815 24.6893C12.1954 24.1966 12.4319 23.6082 12.4982 22.9893C12.5646 22.3703 12.4582 21.7451 12.191 21.183H17.6576C17.4422 21.6339 17.3307 22.1275 17.3314 22.6273C17.3314 23.2938 17.5291 23.9454 17.8994 24.4996C18.2697 25.0538 18.796 25.4857 19.4118 25.7408C20.0275 25.9958 20.7051 26.0626 21.3589 25.9325C22.0126 25.8025 22.6131 25.4815 23.0844 25.0102C23.5557 24.5389 23.8766 23.9385 24.0066 23.2847C24.1367 22.631 24.0699 21.9534 23.8149 21.3376C23.5598 20.7218 23.1279 20.1955 22.5737 19.8252C22.0195 19.4549 21.3679 19.2573 20.7014 19.2573H9.04724C8.82175 19.2572 8.60342 19.1781 8.43032 19.0335C8.25723 18.889 8.14033 18.6884 8.10003 18.4665L7.71849 16.3687H21.6799C22.3564 16.3686 23.0113 16.1311 23.5306 15.6975C24.0499 15.264 24.4006 14.662 24.5215 13.9964L25.9851 5.94929C26.0099 5.8102 26.0037 5.66737 25.9671 5.53092C25.9305 5.39447 25.8643 5.26775 25.7732 5.15974ZM10.5914 22.6273C10.5914 22.9129 10.5067 23.1922 10.348 23.4297C10.1893 23.6672 9.96374 23.8523 9.69984 23.9616C9.43593 24.0709 9.14553 24.0995 8.86537 24.0438C8.5852 23.9881 8.32786 23.8505 8.12587 23.6485C7.92388 23.4466 7.78633 23.1892 7.7306 22.909C7.67487 22.6289 7.70347 22.3385 7.81279 22.0746C7.9221 21.8107 8.10722 21.5851 8.34473 21.4264C8.58224 21.2677 8.86148 21.183 9.14713 21.183C9.53018 21.183 9.89754 21.3351 10.1684 21.606C10.4393 21.8769 10.5914 22.2442 10.5914 22.6273ZM22.1457 22.6273C22.1457 22.9129 22.061 23.1922 21.9023 23.4297C21.7436 23.6672 21.518 23.8523 21.2541 23.9616C20.9902 24.0709 20.6998 24.0995 20.4196 24.0438C20.1395 23.9881 19.8821 23.8505 19.6801 23.6485C19.4782 23.4466 19.3406 23.1892 19.2849 22.909C19.2291 22.6289 19.2577 22.3385 19.3671 22.0746C19.4764 21.8107 19.6615 21.5851 19.899 21.4264C20.1365 21.2677 20.4158 21.183 20.7014 21.183C21.0845 21.183 21.4518 21.3351 21.7227 21.606C21.9935 21.8769 22.1457 22.2442 22.1457 22.6273ZM22.6271 13.6522C22.5867 13.8747 22.4693 14.0758 22.2954 14.2204C22.1216 14.365 21.9024 14.4438 21.6763 14.4429H7.36826L5.9685 6.74004H23.88L22.6271 13.6522Z" fill="#FEB36E"/>
</svg>
